HIERARCHY
ROOT Hips
{
    OFFSET 14.111425399780273 94.90642547607422 -18.415620803833008
    CHANNELS 6 Xposition Yposition Zposition Zrotation Xrotation Yrotation
    JOINT RightUpLeg
    {
        OFFSET -14.111425399780273 0.0 0.0
        CHANNELS 3 Zrotation Xrotation Yrotation
        JOINT RightLeg
        {
            OFFSET 0.0 -48.86737060546875 0.0
            CHANNELS 3 Zrotation Xrotation Yrotation
            JOINT RightFoot
            {
                OFFSET 0.0 -46.03905487060547 0.0
                CHANNELS 3 Zrotation Xrotation Yrotation
                End Site
                {
                    OFFSET 0.0 0.0 18.415620803833008
                }
            }
        }
    }
    JOINT LeftUpLeg
    {
        OFFSET 14.111425399780273 0.0 0.0
        CHANNELS 3 Zrotation Xrotation Yrotation
        JOINT LeftLeg
        {
            OFFSET 0.0 -48.86737060546875 0.0
            CHANNELS 3 Zrotation Xrotation Yrotation
            JOINT LeftFoot
            {
                OFFSET 0.0 -46.03905487060547 0.0
                CHANNELS 3 Zrotation Xrotation Yrotation
                End Site
                {
                    OFFSET 0.0 0.0 18.415620803833008
                }
            }
        }
    }
    JOINT Spine
    {
        OFFSET 0.0 25.910593032836914 0.0
        CHANNELS 3 Zrotation Xrotation Yrotation
        JOINT Spine3
        {
            OFFSET 0.0 25.827213287353516 0.0
            CHANNELS 3 Zrotation Xrotation Yrotation
            JOINT Neck
            {
                OFFSET 0.0 11.638040542602539 0.0
                CHANNELS 3 Zrotation Xrotation Yrotation
                End Site
                {
                    OFFSET 0.0 4.655216217041016 0.0
                }
            }
            JOINT LeftArm
            {
                OFFSET 14.531964302062988 0.0 0.0
                CHANNELS 3 Zrotation Xrotation Yrotation
                JOINT LeftForeArm
                {
                    OFFSET 27.948984146118164 0.0 0.0
                    CHANNELS 3 Zrotation Xrotation Yrotation
                    JOINT LeftHand
                    {
                        OFFSET 23.671363830566406 0.0 0.0
                        CHANNELS 3 Zrotation Xrotation Yrotation
                        End Site
                        {
                            OFFSET 9.468545913696289 0.0 0.0
                        }
                    }
                }
            }
            JOINT RightArm
            {
                OFFSET -14.531964302062988 0.0 0.0
                CHANNELS 3 Zrotation Xrotation Yrotation
                JOINT RightForeArm
                {
                    OFFSET -27.948984146118164 0.0 0.0
                    CHANNELS 3 Zrotation Xrotation Yrotation
                    JOINT RightHand
                    {
                        OFFSET -23.671363830566406 0.0 0.0
                        CHANNELS 3 Zrotation Xrotation Yrotation
                        End Site
                        {
                            OFFSET -9.468545913696289 0.0 0.0
                        }
                    }
                }
            }
        }
    }
}
MOTION
Frames: 10
Frame Time: 0.03333333333333333
-0.00017251967801712453 95.22605895996094 -0.0007607768638990819 -10.79857920646255 -10.101638176887677 -26.41397356492836 7.824860824118935 20.98211259428798 -2.6365753637819576 -3.81259675644126 7.608775476597028 -0.400339754808152 -3.9756933518293955e-16 4.9696166897867443e-17 -7.702905869169453e-16 7.676999271618584 19.61475342449578 -2.4253801515675075 -0.23410631049421843 7.266955142476311 -0.8314147599577725 -1.5902773407317582e-15 -1.987846675914698e-16 2.484808344893372e-15 7.121368290553848 31.07410802150107 -3.4334876845124866 1.8076391895330338e-07 -6.908787238455094e-07 0.8225965361981243 8.337751886348409 -3.2265980743354197 -174.19231157818672 107.05177077945504 -17.93365525047321 -174.24478984686573 -2.07322738237463e-06 -6.577003871499193e-07 22.55596188596409 -3.1805546814635168e-15 0.0 0.0 -114.5653958394462 -29.0670978336917 171.6315167206286 -1.7506104933313882e-06 -1.5696938887937663e-06 -26.913456348089763 -2.9507099095608796e-15 0.0 0.0
-0.00018459412967786193 95.22610473632812 -0.0007949111168272793 -10.435690246865768 -10.19542700119981 -25.895809519490612 7.784156718283732 21.039928402122612 -2.6720644827516504 -3.911718525611593 7.4761289706531215 -0.3896999739939935 -1.9878466759146972e-16 -3.1308585145656485e-15 6.708982531212103e-16 7.498810327625582 19.371300937038868 -2.3769386850199403 -0.3788984717305939 7.237529263282798 -0.8038892017787105 5.103579157120495e-32 -1.5902773407317582e-15 3.67751635044219e-15 6.729451580193428 31.113746828622183 -3.2954024107556443 3.505467186626644e-08 1.3302415229386487e-06 1.3376563691418721 8.345136147205672 -3.2366197707386886 -174.26770832808867 107.10369471257128 -18.068487840671846 -175.41291436858523 -6.721622955400952e-07 -1.7265724781751239e-06 23.027885429639845 -1.5902773407317588e-15 3.1805546814635176e-15 3.1805546814635176e-15 -114.62033344362167 -29.96033812594971 171.7011365287721 1.4316191159040766e-07 -3.646905571304485e-06 -27.227932467628523 1.1181637552020175e-15 1.5517639329082588e-32 1.5902773407317584e-15
-0.00016290924395434558 95.22608184814453 -0.0007726368494331837 -10.546531821012552 -10.071253502178337 -25.967210835580783 7.9724910710173615 20.98849258097332 -2.6858627653786438 -3.9040027265958663 7.467272761302177 -0.39728235663379097 -1.9878466759146975e-16 3.1308585145656493e-15 -1.2424041724466863e-15 7.765551425290918 19.41037544320969 -2.4266731925776552 -0.3400053515091287 7.231646258938341 -0.8240485015563602 7.951386703658792e-16 1.5902773407317584e-15 -3.578124016646457e-15 6.745572581830422 30.894793770984545 -3.2139788705985595 2.886584495045731e-07 1.1814876900912317e-06 1.4817493702037567 8.331758323971808 -2.791220163691385 -174.80379571909629 107.30855249804183 -17.368033358460114 -175.85459758887902 -1.9200652313801187e-07 -1.4945847530032608e-06 23.066601364910355 7.95138670365879e-15 -3.180554681463516e-15 3.1805546814635168e-15 -114.70345387991038 -30.050004400386243 171.91623254407853 1.364222596882496e-06 -4.9508894299020045e-06 -27.131091981588252 2.1369351766083e-15 0.0 0.0
-0.00015503719623666257 95.22605895996094 -0.0007561804377473891 -10.596711100465482 -9.822032913081529 -25.784582441823034 8.417161834423176 20.807833668886897 -2.773994330921011 -4.185248028744366 7.432767053030416 -0.3970320832777976 0.0 0.0 -1.2424041724466865e-16 8.29547362756532 19.147178862061548 -2.5249688082024155 -0.5510837162383673 7.2051126906561205 -0.8424514709493863 7.951386703658792e-16 1.5902773407317584e-15 -1.2921003393445538e-15 6.912300390799309 30.470350506160784 -3.1881189362272506 -9.438528615275453e-08 -9.813645997846651e-07 1.4942630535586479 8.347924988912776 -2.363889863362927 -175.07401715888943 107.68072973032457 -17.09783124775645 -175.89826023288256 -2.470334189966616e-06 3.358002515215713e-07 22.859129513902847 -4.770832022195274e-15 0.0 0.0 -115.02652057773376 -30.620769127856516 172.20211212139955 1.694776013989062e-06 -2.0012263221206103e-06 -27.429744385269576 -2.7332891793827105e-15 0.0 0.0
-0.0001367619843222201 95.22602844238281 -0.000728797574993223 -10.857033732716006 -9.740044382954176 -25.93806525973952 8.673955000124641 20.880126706806728 -2.7917887331590214 -4.111058453292534 7.42399113807409 -0.40855344485375295 -1.9878466759146977e-16 -5.344964657795114e-33 3.0811623476677814e-15 8.499764297353492 19.348862773584994 -2.5405496424020666 -0.23165601804611216 7.133594477771782 -0.8697616123618033 -7.951386703658794e-16 -1.5902773407317588e-15 3.776908684237927e-15 7.388118268348775 30.027659842896814 -3.26863731077316 -2.8485144737971542e-08 1.345488946173862e-07 1.3311237433061531 8.109989051736212 -1.899639669384091 -174.7845881210612 107.90566118938068 -16.6255369358753 -175.5810328775902 7.646147895842494e-07 5.345544794089542e-07 22.667667832908705 6.361109362927033e-15 -3.1805546814635164e-15 1.7655625192200634e-31 -114.87580353925277 -29.498383680074227 172.7996479547454 -7.123253520888025e-07 -4.4998717311239623e-07 -27.32462405799632 7.330184617435448e-15 0.0 0.0
-0.000126330996863544 95.22602844238281 -0.000717303017154336 -10.861567296903901 -9.597868268324762 -26.274628824899573 8.589097591636664 20.64008150092629 -2.764165516994428 -4.434053309211375 7.749119369623548 -0.3852829240562032 -2.551789578560248e-32 -3.1805546814635168e-15 -9.193790876105477e-16 8.332303484079631 19.34527368034759 -2.515015989678135 0.22333397252153045 7.051821135965372 -0.9078375336464352 -1.5902773407317584e-15 -2.344887720839147e-32 1.6896696745274934e-15 7.4898413907126375 29.59380525987873 -3.322986133459356 -8.706235220489871e-07 -8.717167903094337e-08 1.3294309539008295 7.880409833833396 -1.4422854079690905 -174.65547080513144 108.46651629602539 -15.397788766931724 -175.27423400117715 -4.343736823308417e-06 1.3044972613583575e-06 22.72983044643869 -1.5902773407317584e-15 6.3611093629270335e-15 8.827812596100317e-32 -114.73907537768595 -28.716328388578045 173.137147187055 3.1563359510609993e-06 4.659543553325922e-07 -27.102939009243126 -1.453612881762623e-15 2.0172931127807366e-32 -1.5902773407317584e-15
-6.359723920468241e-05 95.2260513305664 -0.0006903674220666289 -10.896598162720071 -9.522003858886084 -26.305956984402968 8.680429010717761 20.46759008759969 -2.776021879578355 -4.508728267813615 8.027323548208647 -0.40224950644169405 1.987846675914697e-16 -3.1805546814635168e-15 -2.782985346280577e-15 8.331818652885197 19.29295473511391 -2.5097908410212666 0.6187340079468945 7.118740635946179 -0.9669935516839682 0.0 0.0 -3.677516350442191e-15 7.814723643474657 29.106679995864557 -3.435086798729996 -1.1018388479988124e-07 3.2065097838023733e-07 1.1364620658013591 7.665566313497888 -1.0033687972084806 -174.6933530891632 109.56861585438975 -13.596177581389508 -174.38170785754272 -6.482306719700121e-06 -5.3630329961387245e-06 23.765596246795184 -9.54166404439055e-15 5.29668755766019e-31 -6.3611093629270335e-15 -114.77842197514732 -28.77478697369034 173.34023085221875 -1.7841637179021354e-06 5.191684978980401e-07 -27.104710960080936 8.07562712090346e-17 0.0 0.0
-1.3750195648754016e-05 95.22599029541016 -0.0006442909361794591 -10.979591221248633 -9.881311675249686 -25.973891414199294 8.705690314632841 20.715082719236737 -2.8073430448191226 -4.322447397181447 8.052412588477912 -0.42767975665389224 3.975693351829396e-16 5.2587555504113215e-33 1.5157330903849571e-15 8.527634683428046 19.456935730695132 -2.5870683167334994 0.42389163602737867 7.519607929072988 -1.0152916656145514 -7.95138670365879e-16 -1.3914926731402884e-15 4.174478019420865e-15 8.63892470789744 28.56273505728188 -3.7623420580298785 -3.695822548811369e-08 1.0638653505079896e-06 0.8923923244816568 6.672343169941227 0.05251683541837508 -174.22839473488676 110.72735359960552 -11.542857207391032 -173.7314408691075 3.178992530169263e-06 1.446025043290253e-06 25.47479199518646 -2.3854160110976376e-15 0.0 0.0 -114.6478984281625 -28.32363987486216 174.0859587765718 2.7738971622482966e-06 -2.914369592538234e-07 -26.781308161734884 -8.271305778063816e-15 0.0 0.0
2.760357347142417e-05 95.22595977783203 -0.0005946247256360948 -10.899593759715868 -10.15940586154371 -25.54746824950337 8.589236739457682 20.93481232997951 -2.796479453692703 -3.960463303886173 8.049969770931897 -0.4626786450648778 0.0 0.0 1.5902773407317584e-15 8.37764989508136 19.382474365827512 -2.529475372030919 0.7647691975259497 7.824649348114729 -1.085368708362732 -7.951386703658792e-16 1.5902773407317584e-15 -2.9817700138720468e-15 9.29718331107417 28.25137278421454 -4.045184217470633 6.387485273433701e-07 1.1987416099072855e-06 0.8347621445532615 5.511505509699327 0.8823860230628839 -174.51250314494476 112.22521282630599 -8.840936089043312 -173.44598042140626 3.5051522458641856e-06 -7.182084057500473e-06 28.213428321063134 9.541664044390547e-15 0.0 0.0 -114.88244637234249 -28.716030727708095 174.492221195311 -5.781225956784099e-06 -1.1902158816265875e-06 -26.922283204195264 1.5064150590916068e-15 -1.590277340731758e-15 1.590277340731758e-15
2.9180137062212452e-05 95.2259292602539 -0.000552105309907347 -10.760008420993199 -9.985720967052398 -25.127704960346872 8.485949122439022 20.63023644935259 -2.6591133888420426 -3.6956668322974617 8.25614727214707 -0.47761265749191417 3.975693351829396e-16 -4.9696166897867443e-17 1.3914926731402886e-15 8.305192329771451 19.09896021243632 -2.4124925702263953 0.8733763226877651 7.621329182329775 -1.0424581252582537 -7.951386703658791e-16 1.9878466759146975e-16 3.4787316828507206e-15 10.462527600104513 27.16939372489004 -4.365149199113784 -4.5832129375105915e-08 8.413750566197915e-07 0.7956294388449725 3.720896970582057 2.0708665103091484 -174.7776365408854 114.3983000985374 -6.404244020707544 -173.64653617302844 -5.0489543757949206e-06 3.065384126730187e-06 33.40898551182218 1.5902773407317584e-15 -8.827812596100317e-32 -6.3611093629270335e-15 -115.11279269350612 -28.96337529154275 175.21519054684035 -4.163840783101649e-06 1.352345255591754e-06 -27.336635009358886 7.876842453311992e-15 1.5902773407317588e-15 -1.0931314816264846e-31
